<svg version="1.1" id="Capa_1" xmlns="http://www.w3.org/2000/svg" xmlns:xlink="http://www.w3.org/1999/xlink" x="0px" y="0px" viewBox="0 0 332.697 332.697" style="enable-background:new 0 0 332.697 332.697;" xml:space="preserve">
<g>
	<path style="fill:#279c17;" d="M8.398,16.323v300.057c0,9.013,7.305,16.317,16.317,16.317h131.446   c9.013,0,16.317-7.305,16.317-16.317v-0.457c83.849-0.011,151.821-67.988,151.821-151.842c0-83.859-67.983-151.842-151.842-151.842   c-0.185,0-0.37,0.011-0.555,0.016C170.085,5.222,163.754,0,156.156,0H24.715C15.708,0.005,8.398,7.31,8.398,16.323z    M172.478,270.588h13.576v-31.851h-13.576V89.435h13.576V57.583h-13.576V44.878c65.726,0.011,119.186,53.482,119.186,119.203   s-53.461,119.197-119.186,119.208V270.588z M92.535,150.483c1.012-7.288,2.796-13.511,5.542-18.313   c4.607-8.061,12.63-12.145,23.834-12.145s19.227,4.085,23.834,12.145c4.329,7.571,6.521,18.324,6.521,31.971   c0,13.652-2.197,24.383-6.527,31.916c-4.612,8.028-12.63,12.096-23.829,12.096c-11.204,0-19.222-4.068-23.834-12.096   c-2.758-4.803-4.552-11.041-5.559-18.379c-0.571-4.172-0.963-8.594-0.963-13.538C91.556,159.147,91.953,154.687,92.535,150.483z    M66.743,177.678c-0.256-1.24-0.68-2.219-1.213-2.975c-0.941-1.333-2.17-2.029-3.231-2.469c-1.164-0.479-2.812-0.827-4.89-1.039   c-1.485-0.147-2.828-0.647-4.003-1.36c-2.556-1.556-4.237-4.21-4.237-7.245c0-3.225,1.789-6.043,4.471-7.544   c1.012-0.566,2.143-0.963,3.367-1.093c2.502-0.267,3.796-0.669,4.438-0.968c1.583-0.702,3.644-2.159,3.644-6.918   c0-2.366-0.636-4.199-1.947-5.613c-1.251-1.343-3.062-2.002-5.532-2.002c-0.566,0-1.071,0.054-1.572,0.12   c-1.991,0.256-3.465,1.006-4.433,2.317c-0.713,0.963-1.24,2.148-1.566,3.514c-0.968,4.079-4.922,7.038-9.399,7.038h-2.159   c-0.315,0-0.615-0.065-0.925-0.098c-2.317-0.223-4.411-1.229-5.831-2.921c-1.409-1.681-1.974-3.78-1.588-5.918   c0.359-2.034,0.876-4.047,1.534-5.988c1.49-3.633,3.748-6.864,6.772-9.763c1.414-1.295,3.019-2.333,4.71-3.247   c1.153-0.625,2.328-1.218,3.612-1.67c3.122-1.093,6.935-1.648,11.335-1.648c1.213,0,2.322,0.147,3.47,0.245   c6.706,0.549,12.39,2.611,16.812,6.342c5.309,4.476,8.001,10.541,8.001,18.02c0,2.018-0.305,3.889-0.767,5.689   c-0.761,2.986-2.083,5.695-4.096,8.028c-0.647,0.745-1.311,1.42-1.996,2.023c0.756,0.566,1.566,1.246,2.437,2.04   c4.106,3.807,6.288,8.926,6.723,15.104c0.049,0.723,0.185,1.403,0.185,2.154c0,7.446-2.605,14.087-7.751,19.717   c-4.591,5.015-11.204,7.734-19.488,8.338c-1.126,0.076-2.176,0.256-3.361,0.256c-5.76,0-10.704-0.952-14.876-2.774   c-4.743-2.072-8.479-5.276-11.096-9.665c-1.67-2.834-2.866-6.244-3.557-10.144c-0.413-2.339,0.19-4.623,1.702-6.429   c1.605-1.915,4.009-3.013,6.598-3.013h0.457h2.464c4.737,0,8.637,2.654,9.284,6.315c0.207,1.197,0.538,2.263,0.979,3.166   c1.153,2.339,3.062,3.639,5.82,4.079c0.68,0.109,1.371,0.207,2.159,0.207c2.399,0,4.438-0.8,6.233-2.458   c1.73-1.594,2.567-3.932,2.567-7.147C67.015,179.277,66.9,178.45,66.743,177.678z"/>
	<path style="fill:#279c17;" d="M247.412,150.483h31.982v27.195h-31.982V150.483z M218.667,95.559l-9.404-5.472l12.151-20.875   l9.404,5.472L218.667,95.559z M262.234,105.942l5.45,9.426l-20.962,12.113l-5.445-9.42L262.234,105.942z M246.743,200.707   l20.962,12.107l-5.439,9.415l-20.962-12.107L246.743,200.707z M221.43,258.938l-12.151-20.875l9.404-5.472l12.151,20.875   L221.43,258.938z M121.911,189.883c1.795,0,3.187-0.446,4.259-1.354c1.458-1.246,2.883-5.173,3.546-9.785   c0.571-3.965,0.859-8.893,0.859-14.615c0-9.333-0.691-16.279-2.056-20.636c-1.099-3.497-3.133-5.058-6.608-5.058   c-3.492,0-5.553,1.566-6.701,5.086c-1.414,4.357-2.132,11.286-2.132,20.609c0,8.898,0.723,15.741,2.143,20.337   C116.38,188.219,118.441,189.883,121.911,189.883z"/>
</g>
<g>
</g>
<g>
</g>
<g>
</g>
<g>
</g>
<g>
</g>
<g>
</g>
<g>
</g>
<g>
</g>
<g>
</g>
<g>
</g>
<g>
</g>
<g>
</g>
<g>
</g>
<g>
</g>
<g>
</g>
</svg>